<?xml version="1.0" encoding="utf-8"?>
<!-- Generator: Adobe Illustrator 26.0.3, SVG Export Plug-In . SVG Version: 6.00 Build 0)  -->
<svg version="1.0" id="katman_1" xmlns="http://www.w3.org/2000/svg" xmlns:xlink="http://www.w3.org/1999/xlink" x="0px" y="0px"
	 viewBox="0 0 600 450" style="enable-background:new 0 0 600 450;" xml:space="preserve">
<style type="text/css">
	.st0{fill:#1B72B9;}
	.st1{fill:#3989C9;}
	.st2{fill:#EBE65A;}
</style>
<path class="st0" d="M300.1,36.7c104.2,0,188.7,84.5,188.7,188.7s-84.5,188.7-188.7,188.7s-188.7-84.5-188.7-188.7
	S195.9,36.7,300.1,36.7z"/>
<path class="st1" d="M300.1,36.7c74.7,0,139.3,43.5,169.9,106.5c4.6,17.1,7.1,35.1,7.1,53.7c0,113.9-92.3,206.2-206.2,206.2
	c-16.9,0-33.4-2.1-49.2-5.9c-65.1-29.9-110.3-95.6-110.3-171.8C111.4,121.2,195.9,36.7,300.1,36.7L300.1,36.7L300.1,36.7z"/>
<path class="st2" d="M418,78.1c35.1,28.1,59.9,68.5,68,114.6c-0.6-0.9-1.1-2-1.7-3.7c-3.7,1.2-3.8,1.3-8.2,2l-0.2,0.3
	c-1.7,2.5,0.1,1.4-3,4c-3.6,3-6,7.2-10,9.7c-0.5,4.3,0.4,5.3-0.7,10.4c-0.4,1.9-2.5,7-5,6.6c-0.8-0.1-4.1-8.4-4.9-10.6
	c-1.3-3.9-2.8-6.7-3.8-11.2c-0.5-2.4-0.9-6.9-1.5-8.5c-2.6,0.4-2.5,2-5,0.3c-1.8-1.3-1-2-1.9-3.9c-2.1-1.9-4.2-3.9-6.3-5.8
	c-1.6-0.5-7.9,0.4-10.6,0.1c-4.8-0.4-5.2-0.1-8-4c-5,0.2-4.6,2.1-9.5-2.1c-3.2-2.7-2.6-7.1-7.2-4.6c-0.2,4,1.8,4.8,3.5,6.7
	c1.3,1.4,2.8,2.4,3.5,4.3c0.1,0.1,0.4,1.8,0.4,2.1c4.5,0.3,5.6-1.9,8.1-3.7c2.4,2.3,0.1,2.7,3.6,4.4c2.8,1.4,2.2,0.6,4,2.9
	c0.9,3-6.2,11.3-8.6,12.8c-1.8,1.2-2.8,0.5-4.4,1.8c-2.4,2,0.3,1.7-3.9,3.3c-4.5,1.6-9,5.1-13.8,5.4c-1-2.8-2.1-5.7-3.1-8.5
	c-3-9.7-2.9-5.9-6-11c-1.5-2.2-0.8-3.6-1.8-5.5c-0.7-1.4-1.7-2.1-2.6-3.9c-1.4-2.8-3-7.1-6.2-6.6c-0.7,2.2,3,9.5,3.9,11.3
	s2.4,2.6,2.8,5.1c0.6,3.5-0.1,3.1,1.8,5.5c4,4.9-0.2,4,6.1,8.8c4.7,3.6,3.5,4.6,5.5,9.4c3.1,0.9,12.3-3.2,13.8-2
	c1.9,3.3-2.2,8.7-3.2,11.6c-3.4,9.7-9.3,9.6-13.8,17c-2.5,4-3.6,4.5-5.9,9.4c-2.6,5.5,5.3,20.6,0.5,26.9c-1,1.5-4.4,2.3-8.5,6.7
	c-4.4,4.8,0.1,4-1.6,11.9c-1.3,1.8-3,1.9-4.6,3.2c-0.6,1.9-0.1,3.4-1.1,5.7c-1.1,2.8-1.3,1.3-2.8,3.6c-1.1,1.8-1,2.5-2.4,4.2
	c-1.1,1.5-1.8,1.9-2.8,2.9c-5.3,4.8-16.6,5-17.5,4.3c-2.7-2.3-0.8-2.9-1.5-6c-0.6-2.8-2.1-5.2-3.4-7.3l-0.1-0.2
	c-0.6-1.1-1.1-2.1-1.5-3c-2.2-6.9-1.4-12.1-5.2-19.1c-4.8-9,2.7-13.7,2.4-18.8c-0.1-1.4-0.6-2.2-0.7-3.2c-0.9-5.6-1.4-10.6-5.2-15
	c-4.1-4.8-3.6-3.1-2.2-11c1.7-9-2.2-6.7-7.6-7c-2.7-8.2-7.9-4.2-13.1-1.8c-3.3,1.5-4.5-0.4-8.2,0.1c-8.2,1.1-1.8,4.6-12.7-4.1
	c-4.6-3.6-1.5-1.8-4.2-6.3c-0.9-1.6-3.7-3.8-5-5.5c-4.2-5.2,0.8-10.5,0.1-16.5c-1.3-11.1-3.1-1.5,3.1-14.9c3.3-7.2,8.2-7.2,9.5-10.4
	c1.1-2.8,0.4-4.9,2.4-7.5c1.8-2.1,4.4-1.7,5.4-5c1.4-4.1-1.3-4.6-4.4-4.7c-1.3-4.3-1.3-3.2-0.3-7.2c0.5-2.2,0.1-3.3,0.5-5.5
	c1.2-5.6,10.7,0,13.4-2.3c1.3-2.4,1.5-4.7,0-7s-3.5-2-4.5-4.2c2.3-1.5,0.6-0.2,2.6-0.6c2.4-0.5,2.1-1.2,4.8-1.7
	c2.5-0.5,4.1-2.8,6.5-4.3c3.4-2.2,1.8-4.2,6-4.9c6.7-1.2,2.4-1,3.1-7.2c1-0.4,2-0.8,3-1.3c2.1,2.8-0.5,1.6,2,3.5
	c0.7-0.4,1.5-0.8,2.2-1.2c-0.4-3-1.8-2.4-2.7-6.1c-3.3,0.5-4.5,3.3-7.2,2.3c-2.6-1-2.7-4.7-2.6-7.8c1-2.3,5.8-3.6,7.7-4.2
	c3-1,2.6-3,5.4-5.8c3.6-3.6,1,0,2.7-4.6c4-0.1,2.1-0.3,4.5-1.5h0.1l0.2-0.1c1.4-0.6,3.2-0.8,5-1.4c6.6-2.2,9.4-1.1,14.2,0.9
	c3.7,1.6,15,1.6,15.9,6.3c-2.7,2.8-5.3,0.8-9.2,1c0.7,3.7,1,3.7,4.4,4.7c0.5-1.7-0.2-1.1,0.7-2.2c1.1,0.2,2.2,0.4,3.3,0.6
	c1.1-3.7,2.4-3.2,6-3.6c-0.6-2.6-1.3-1.8,0.1-3.9c3.8,0.4,0.7,0.1,2.6,3.1c2.7-0.3,5.3-3.3,8.9-3.7c2.3-0.2,2.2,0.6,5.4,0.3
	c2.7-0.3,2.5-1.3,5.2-0.1c1-1.8,0-1.7,2.4-2.2c3.6-0.6,6.8,1.6,10.3,2.1c-2.6-3.2-5.1-2.6-1.9-7.9c4-0.8,4.4-0.2,6.2,2.8
	C417.1,79,417.5,78.4,418,78.1L418,78.1z M115.8,184.7c8.5-38.7,28.9-72.9,57.1-98.7c2.2,0.8,5.1,0.3,7.3,0.2
	c0.8-1.4,1.3-2.7,2.7-3.2c0.5-0.2,1.2-0.2,2.1-0.2c0.1,0.7,0.3,1.4,0.5,2.2c0,0.1,0.1,0.5,0.1,0.4c0.1-0.1,0.1,0.3,0.2,0.4
	c3.8-2.2,0.6-2.3,2.7-6.3c-3.2-0.6-2.8-0.2-4.8-2.3c1.9-2.1,5.7-2.9,8.5-2.7c-0.2,1.9-1.1,1.9-0.4,3.5c2.2-1.4,3.7-5,7.2-4.3
	c0.7,0.5,1.5,0.9,2.2,1.4c-1.8,1.7-4.5,1.8-6.9,2.8c-1,10.5,3.3,1.7,1.9,8.9c2.6-0.2,5.1-2.1,6.1-4c-1-1.3-2.4-1.3-3.1-2.8
	c0.6-1.9,1.9-3.4,3.7-4.3c1.2-0.6,2.7-0.9,4.4-0.9c19.2,0.1,10.1,1,16,3.7c1.3,0.6,3.7,0.9,4.5,2c1.2,1.8,0.1,3.6,2,5
	c1.7,1.3,1.9,0,4.2,2.8c-0.5,1.6-1.6,3.2-4,3.3c-3.3,0-1.3-2.2-4.8-1.8c0.1,3.3,3.3,4.5,0.3,6.3c-2.7,1.6-1-0.6-3,0.5
	c-0.1,0-0.2,0.1-0.3,0.2s-0.2,0.2-0.3,0.3c-0.4,0.4-0.7,0.7-1,1.1c-4.8-1.3-3.9-0.7-6.8-3.9c-1.1-1.2-1.3-1.5-3.2-1.4
	c-1.2,0-2.8,0.6-3.9-0.5c2.4-3,3.5-0.1,6.9-1.8c0.6-0.3,4.4-3.2,5-3.9c-1-2.3-0.1-0.4-1.6-1.9c-3.4-3.4-4.4-2.6-8.9-2.6
	c-2.2,2.5-3.8,5.5-6.1,6.9c-1.4,0.8-3.1,1-5.3,0c1,4.2,3.7,1,3.9,6c-1.8-0.3-2.7-1.2-4.5-0.6c-3.9,1.4-0.4,1.3-0.1,2.1
	c0,0,1.8,0.2,0,0.9c-2,0.7-0.3-0.4-4.2-2.7c0.5-1,1.1-2,1.6-3c-3.1,1-7.1,2.5-10.8,4.3c-4.2,2.1-8.1,4.5-10.5,6.6
	c-0.1,3.6,0.6,1.2,1,5.5c5.6,0.3,3.8,2,9.4,3.6c1.1,0.3,2.5,0.6,4.2,0.9c0,2.7-2.4,4.7-0.7,7.5c3.9,2.8,4.1-2.6,5-6
	c13.3-2.8,6.9-6.7,10.3-14c0.5-1.1,1.2-2.3,2.3-3.5c1,0,5.2,0.5,6.1,0.7c3,0.5,1.4,1.3,4.7,2.7c-0.1,2.6-1.4,6,2.5,5.4
	c3-0.5,2.3-2.9,5.9-3.4c1.6,3.8,1.2,5.5,1.9,10.1c8.7,3.4,4.8,6.1,3.1,12.5c1.1,0.5,2.2,1,3.4,1.5c-0.1,1.8-0.1,3.6-0.2,5.4
	c-0.2,0-9.3-2-9.9-2.2c1.4-4,3.9-4,5.6-8.1c-3.3,0.6-3,1.6-5.4,2.3c-2.1,0.6-3.7,0.2-6,0.5c-0.8,2.6-0.1-2.3,0.2,1.1
	c0.1,1.3,0.7,0.1-0.1,1.4c-3-1.4-2-4.7-7.6-1.6c1.3,0.6,2.5,1.1,3.9,1.6c-0.2,3.7-0.5,0.9-1.3,3.4c-1.9,6.3,5.3,2.4,7.1,2.1
	c-0.5,3.3-2.5,3.3-5.4,4.3c-3.2,1-4.2,2.3-6.7,2.9c0-4-0.6-0.6,1.1-3.4c-2.5,0.2-4.4,1.4-6.8,2.4l-0.2,0.1c-3.1,1.3-3.6,1.5-3.9,5.4
	c-2.7,0.8-5.7,1.7-7.6,3.7c-1.9,1.8-3.7,3.6-5.6,5.3c-0.2,0.1-0.3,0.3-0.4,0.4c0.7,5,0,5.1-3,7c-2.5,1.6-3.4,1.6-5.7,3.7
	c-7.6,6.8-3.9,3.6-3.5,15.3c-1.6-0.5-3.1-1-4.5-1.5c-1.2-7.7,0.4-5.2-5.8-7c-6.7-1.9-5.8,1.4-8.6,1.9c-3.1,0.7-4.6-2.8-9.1,0.1
	c-2.5,1.7-4.8,2.8-5.4,5.8c-0.7,3.6-2.4,6.3-2.1,10.3c0.4,10.9,10.3,11.5,12.9,6.4c1.7-3.4,1.3-5.2,6.8-4.4c0.5,2.9-0.3,5-1,7.3
	c-0.5,1.3-1.8,3.7-1.1,5.5c3.9,1.6,4-1.4,9.2,1.7c0.4,5.2-2.4,11,1.6,14c3.1,2.3,3.3,0.2,6-0.2c3-0.5,2.5,1.4,5.3,1.8
	c1.6-1.9,0.9-0.7,1.9-3.1c1.8-4.1,2.3-2.2,6.6-4.7c0.4-0.2,0.8-0.5,1.2-0.8c0.5,1,1,2,1.5,3c3.1-3.7,3.5-0.1,7.1,0.9
	c1.6,0.4,2.7,0.6,3.5,0.6c2.6,0,2.9-1.2,6.5,0c0.4,0.2,1,0.3,1.5,0.5c0.1,0,0.2,0.1,0.2,0.2c0.1,0,0.2,0.2,0.3,0.2
	c0.6,0.7,0.7,1.4,1.1,2.1c2.5,2.4,5,4.7,7.4,7.1c4.8,1.9,4.8-1.6,10.2,3.6c2.3,2.2,1.3,2.1,2.5,4.9c0.2,0.4,0.5,0.9,0.8,1.4
	c0.5,1.3,1,2.6,1.6,3.8c2.5,3.2,5.9,1.2,9.3,4.5c2,1.9,0.5,1.4,4.9,2.1c6.8,1.1,4.2,0.5,9.4,4.4c2,1.5,2.5,0.6,4.3,1.9
	c2.6,3.6,1.9,7.5-0.2,10.7c-6.7,9.8-4.4,8.2-4.7,15.9c-0.2,4.4-1.5,13.6-5.7,14.8c-15.2,4.3-6.3,7.2-10.3,14.7
	c-1.1,2.1-2,2.7-2.7,4.4c-3,7.1-0.9,9.4-9.8,7.8c0.8,1.5,0.3,0.5,1.1,1.8c2.7,4.1,3.1,7.2-2.4,8.2c-4.5,0.9-2.6,0-3,5
	c-1.8,0.7-2.5,0-3.7,1.2c1.6,2.9,0.1,0.5,2.8,2.1c-0.5,1.6-0.8,3.1-1.3,4.7c-1,3.8-1.3,0.3-1.7,4.7c1.6,0.7,2.7,0.6,4,2.5
	c-0.2,1.5-1.6,5.4-2.1,7.7c2.2,3.3,4.1,6.9,8.8,7.3c-0.1,2.8,0.6,2.5-1.8,3.1c-2.1,0.5-6.4-1.5-8.2-2.4c-3.1-1.7-6-3.9-8.2-7.1
	c-1.2-1.8-0.7-0.9-2-2.6c-2.3-3-1.4-4.3-2.1-6.3c-0.4-1.2-2.2-2.4-1.4-6.2c0.2-1.1,1.9-6.1-0.2-5.3c-2.1,0.8,1.6,0.5-1.3,1.8
	c-0.7-1.8-1.2-4.5-1.6-6.8c-0.7-3.8-1.6-4-2.1-6.3c-0.9-5.4,1.4-6-1.1-14.9c-1.7-5.9-1-19.9-2.8-27.1c-0.3-1.1-0.6-2.1-1-2.9
	c-1.6-2.7-5.6-4-8.8-6.1c-0.2,0-0.3-0.1-0.4-0.2c-4.4-3.1-8.6-15.2-12.1-19.8c-1.6-2.2-2.7-1.2-3.4-4.6c-0.8-3.1,0.4-2.6,1.4-5.2
	c-5.4-9.9,7-9.7,4.4-21.6c-0.5-2.2-2.1-5.2-3.4-6.2c-2.5,1.1-1.3,1.7-2.7,3.9c-2.1-1.2-4.1-2.3-6.1-3.5c-6.2-6-2.9-1.6-4.7-5.6
	c-3.7-8.2-7.3-3.6-11.8-7.7c-2-1.7-2.4-4.4-5.7-3.9c-5,0.7-2.2,1.4-7.4-1c-4.4-2.1-9-4.5-12.1-7.3
	C118.5,189.6,120.3,190.1,115.8,184.7L115.8,184.7z M175,84.2c1.1-1,2.3-2,3.5-3l0.1,0.2c0.2,0.4,0.4,0.4,0.7,1.4
	C176.1,83.5,176.1,84,175,84.2L175,84.2z M401,270.5c-2.7,1.4-3,4.5-5,6.2c-2.2,2-5.1,1.1-5.9,4.7c-1.1,4.6,1.8,3.2-1.4,9.2
	c-1.1,2.2-1.2,7.8,0.5,9.4c5.3,5.1,8.1-7.7,9.3-11.8c0.9-2.9,1.8-6.1,2.7-8.8C402.2,276.7,403.6,274.2,401,270.5L401,270.5
	L401,270.5L401,270.5z M392.3,135.5c0.4,5.9,3.9,8.2,6.4,10.9c-0.3,2.8-1,2.1-0.9,6c3,2.1,5.1,3.4,9,2.4c0.5-4.7-1-4.5-2.4-7.7
	c0.2-0.4,0.9-0.9,1-1c1.1-1.4,0.5,0.6,1.1-1.9c-2.8-0.9-7.4-3.8-7.8-7.6c1.4-1.1,1-0.4,2-1.1c2.2-1.5,0.5,0.8,1.9-1.7
	c-1.1-2.2-2.4-2.6-5.2-1.5C396.1,132.7,392.9,135,392.3,135.5L392.3,135.5z M367.6,137.1c-1.9-2.6-1.8-3.9-5.4-4
	c-1.4,1.6-3.1,3.9-3.9,6.2c-1.2,3.6-0.4,1.1-0.2,5c-0.1,0.1,0,0.3,0,0.5c-0.1,2.3-0.6-0.4-0.2,1.7c2.8-0.6,0.7-0.5,2.8-1.2
	c2-0.7,8.1-2.5,9.9-2.1c4.2,1,7.7,4.3,12.4,1c-0.2-4.2-5.3-5.8-8.8-7.6c0.2-3.9,1.2-0.8,1-4.5c-1.2,0-1.9-0.2-3.1,0.2
	c-2.7,1.2-1.2,1.5-1.2,2c0.1,2.1,2.7-0.4-0.1,2.1C369.8,137,368.5,137,367.6,137.1L367.6,137.1z M297,107.8
	c-0.1,6.8,2.2,4.5,4.5,7.8c-1,2.9-1.2,0.6-2.4,3.6c-1,2.5,0.2,0.2-0.4,4.5c1.8,0.1,4.3-0.5,6.6-0.7c3.3-0.3,3.2-0.6,4.4-3.9
	c-1.8-2.2-3.6-4.4-5.5-6.7c-2.4-3.6,0-1.1-0.7-4.1c-0.5-1.1-1-2.1-1.5-3.2C298.8,106.2,299.1,105.9,297,107.8L297,107.8L297,107.8
	L297,107.8z"/>
<path class="st1" d="M336.5,140.3c1.7,1.1,3.7,1.9,5,3c1.6,4.3-0.4,2.2,2.7,6.7c1.8,2.4,1.4,4.2,3.2,5.5c3.3-0.4,0.4,0.5,2.5-1.5
	c0.4-0.4,1.4-1.6,1.7-2.1c-1.1-1.6-1.8-1.8-2.7-3.5c3.7-5,5.4-2.1,6.3,1.2c2.4,9.1,6,6.5,9,6c3.1-0.4,0.4,0.1,3.2,0.8
	c2.7,0.7,1.4,0,3.3-0.5c6.3-1.6,1.5,10.7,0.8,12.1c-3.4,0.4-2.8-0.3-5.3-0.6c-5-0.5,0.3,3-11.5-0.9c-11.4-3.6-8.9-4.4-11.3,3.4
	c-2.6-0.2-2.5-0.7-4.9-1.5c-0.9-0.4-1.5-0.5-1.8-0.6h-0.1c-1-0.3,0,0-2-1.9c-1.8-1.6-6-2-9.1-3.6c0-2.6,2.3-4.8-0.5-7.9
	c-0.9-0.2-13.8,0.3-15.8,0.7c-4.2,0.9-4.9,4.4-10.6,3.6c-3.1-0.4-2.1-0.1-2.8-2c1-1,0-0.5,1.8-1.1c0.7-0.2,0.9-0.1,1.6-0.2
	c9.3-1.4,4.5-6.1,10.3-10.6c4.8-3.9,1,0,3.7-4.6c3.3-0.3,2.8,1.3,5.6,0c2.3-1.2,1.6-2.2,4.8-2.3c2.9,2.9,2.3,4.6,7,6.9
	c1.9,0.9,3,1.4,4.2,3c2.2,3.1,0.3,2.1,1.1,4.2c0.2-0.1,0.4-0.2,0.7-0.3l0.1-0.1c2.5-1.2-1.3-1.6,2.8-5.2c-1.2-0.9-2.1-1.5-2.8-1.9
	l-0.1-0.1c-3.2-1.9-1.9-0.1-6-5.3c-1.1-1.5-1.4-1.5-1.3-3.8c3-0.5,3.5,1.6,6.2,4c0.4,0.3,0.8,0.6,1.2,0.9L336.5,140.3L336.5,140.3
	L336.5,140.3z"/>
</svg>
